<svg id="Layer_1" data-name="Layer 1" xmlns="http://www.w3.org/2000/svg" viewBox="0 0 50 39.95"><path d="M49.56,7.64,46,5.2a1,1,0,0,0-1.39.26L26.38,32.06a.82.82,0,0,0-.15.36L25,38a1,1,0,0,0,.41,1,1,1,0,0,0,.57.18,1.1,1.1,0,0,0,.55-.16l4.75-3.12a1,1,0,0,0,.28-.27L45.17,15.82h0L49.83,9A1,1,0,0,0,49.56,7.64ZM30.05,34.34,27.5,36l.64-3L41,14.2,43,15.52Zm14-20.47-1.92-1.31L45.7,7.42l1.91,1.31Z" transform="translate(0 -5.02)"/><path d="M22.4,41.28q-2.32,2.07-3.5,1.61c-.89-.36-2.5-2.27-3.21-11-.1-1.16-.38-4.68-2.76-5.2C8.72,25.72,2.06,36.79.13,40.21a1,1,0,0,0,1.74,1c3.63-6.4,8.77-13,10.63-12.57.45.1,1,1.05,1.2,3.41.63,7.81,2,11.73,4.46,12.71a3.15,3.15,0,0,0,1.22.24c1.65,0,3.23-1.2,4.35-2.21a1,1,0,0,0-1.33-1.49Z" transform="translate(0 -5.02)"/></svg>